<svg width="62" height="62" viewBox="0 0 62 62" fill="none" xmlns="http://www.w3.org/2000/svg">
<circle cx="31" cy="31" r="31" fill="#25316E"/>
<path d="M35.4922 26.25C35.3281 24.9922 34.3438 24.0078 33.1406 23.625L30.4062 22.8594C30.1875 22.8047 30.0781 22.5859 30.0781 22.4219C30.0781 22.1484 30.2969 21.9297 30.5156 21.9297H32.3203C32.5391 21.9297 32.7031 21.9844 32.8672 22.0938C33.1406 22.2031 33.4688 22.1484 33.6328 21.9844L34.6172 21C34.8906 20.7266 34.8906 20.2344 34.5078 20.0156C34.0156 19.6328 33.4141 19.4688 32.8125 19.3594V18.375C32.8125 17.9375 32.375 17.5 31.9375 17.5H31.0625C30.5703 17.5 30.1875 17.9375 30.1875 18.375V19.3594C28.4922 19.5781 27.2344 21.0547 27.4531 22.8047C27.6172 24.0625 28.6016 25.0469 29.8047 25.4297L32.5391 26.1953C32.7578 26.25 32.8672 26.4141 32.8672 26.6328C32.8672 26.9062 32.7031 27.125 32.4297 27.125H30.625C30.4609 27.125 30.2422 27.0703 30.0781 26.9609C29.8047 26.8516 29.4766 26.9062 29.3125 27.0703L28.3281 28.0547C28.0547 28.3281 28.1094 28.8203 28.4375 29.0391C28.9297 29.4219 29.5312 29.5859 30.1875 29.6953V30.625C30.1875 31.1172 30.5703 31.5 31.0625 31.5H31.9375C32.375 31.5 32.8125 31.1172 32.8125 30.625V29.6953C34.4531 29.4766 35.7109 28 35.4922 26.25ZM25.1562 30.1328C24.6094 29.3672 23.5156 29.2031 22.75 29.75C21.9297 30.3516 21.8203 31.4453 22.3672 32.2109L24.4453 35C24.7188 35.3281 24.6641 35.8203 24.3906 36.1484L23.6797 36.8594C23.2969 37.1875 22.6953 37.1875 22.3672 36.8047L17.5 30.8984V22.75C17.5 21.8203 16.6797 21 15.75 21C14.7656 21 14 21.8203 14 22.75V34.7266C14 35.3281 14.1641 35.875 14.5469 36.3672L20.2344 43.6953C20.5078 44.0781 20.7266 44.4609 20.8359 44.8984C20.8906 45.2812 21.2734 45.5 21.6562 45.5H28.875C29.3125 45.5 29.75 45.1172 29.75 44.625V38.5C29.75 37.0234 29.2578 35.5469 28.3281 34.3438L25.1562 30.1328ZM47.25 21C46.2656 21 45.5 21.8203 45.5 22.75V30.8984L40.5781 36.8047C40.25 37.1875 39.6484 37.1875 39.2656 36.8594L38.5547 36.1484C38.2812 35.8203 38.2266 35.3281 38.5 35L40.5781 32.2109C41.1797 31.4453 41.0156 30.3516 40.25 29.75C39.4297 29.2031 38.3359 29.3672 37.7891 30.1328L34.6172 34.3438C33.7422 35.5469 33.25 37.0234 33.25 38.5V44.625C33.25 45.1172 33.6328 45.5 34.125 45.5H41.2891C41.6719 45.5 42.0547 45.2812 42.1641 44.8984C42.2734 44.4609 42.4375 44.0781 42.7109 43.6953L48.3984 36.3672C48.7812 35.875 49 35.3281 49 34.7266V22.75C49 21.8203 48.1797 21 47.25 21Z" fill="white"/>
</svg>
