<svg width="62" height="62" viewBox="0 0 62 62" fill="none" xmlns="http://www.w3.org/2000/svg">
<circle cx="31" cy="31" r="31" fill="#F07E0E"/>
<path d="M30.0703 25.4297L33.0234 26.1953C33.2422 26.25 33.3516 26.4141 33.3516 26.6328C33.3516 26.9062 33.1328 27.125 32.8594 27.125H30.9453C30.7266 27.125 30.5078 27.0703 30.3438 26.9609C30.0156 26.8516 29.6875 26.9062 29.4688 27.0703L28.4297 28.0547C28.375 28.1094 28.375 28.1641 28.3203 28.2188C28.2656 28.2734 28.2109 28.3828 28.2109 28.4922C28.2109 28.7656 28.375 28.9297 28.5391 29.0391C29.0859 29.3672 29.7422 29.6406 30.3984 29.6953V30.625C30.3984 31.1172 30.8359 31.5 31.3828 31.5H32.3125C32.8594 31.5 33.2969 31.1172 33.2969 30.625V29.6953C35.0469 29.4766 36.4141 28 36.1953 26.25C36.0312 24.9922 34.9922 24.0078 33.625 23.625L30.6719 22.8594C30.4531 22.8047 30.3438 22.6406 30.3438 22.4219C30.3438 22.1484 30.5625 21.9297 30.8359 21.9297H32.75C32.9688 21.9297 33.1875 21.9844 33.4062 22.0938C33.6797 22.2031 34.0078 22.1484 34.2266 21.9844L35.2656 21C35.3203 20.9453 35.3203 20.8906 35.375 20.8359C35.4297 20.7812 35.4844 20.6719 35.4844 20.5625C35.4844 20.2891 35.3203 20.125 35.1562 20.0156C34.6094 19.6875 33.9531 19.4688 33.2969 19.3594V18.375C33.2969 17.9375 32.8594 17.5 32.3125 17.5H31.3828C30.8359 17.5 30.4531 17.9375 30.4531 18.375V19.3594C28.6484 19.5781 27.2812 21.0547 27.5 22.8047C27.6641 24.0625 28.7578 25.0469 30.0703 25.4297ZM46.1484 35.4922C45.4922 34.8906 44.5078 34.9453 43.7969 35.4922L38.7656 39.4844C38.1641 39.9766 37.3984 40.25 36.5781 40.25H30.125C29.6328 40.25 29.25 39.8672 29.25 39.375C29.25 38.9375 29.6328 38.5 30.125 38.5H34.3906C35.2656 38.5 36.0859 37.9531 36.1953 37.0781C36.1953 36.9688 36.25 36.8594 36.25 36.8047C36.25 36.75 36.25 36.75 36.25 36.75C36.1953 35.8203 35.4297 35 34.5 35H25.75C24.1641 35.0547 22.7969 35.5469 21.6484 36.4766L19.1328 38.5H16.125C15.6328 38.5 15.25 38.9375 15.25 39.375V44.625C15.25 45.1172 15.6328 45.5 16.125 45.5H35.5938C36.4141 45.5 37.1797 45.2266 37.7812 44.7344L46.0938 38.1172C46.4766 37.8438 46.75 37.3516 46.75 36.75C46.75 36.2578 46.4766 35.7656 46.1484 35.4922Z" fill="white"/>
</svg>
