<svg width="62" height="62" viewBox="0 0 62 62" fill="none" xmlns="http://www.w3.org/2000/svg">
<circle cx="31" cy="31" r="31" fill="#00ADD8"/>
<path d="M19.25 42.875C19.25 44.3516 20.3984 45.5 21.875 45.5H41.125C42.5469 45.5 43.75 44.3516 43.75 42.875V28H19.25V42.875ZM36.75 32.1562C36.75 31.8281 37.0234 31.5 37.4062 31.5H39.5938C39.9219 31.5 40.25 31.8281 40.25 32.1562V34.3438C40.25 34.7266 39.9219 35 39.5938 35H37.4062C37.0234 35 36.75 34.7266 36.75 34.3438V32.1562ZM36.75 39.1562C36.75 38.8281 37.0234 38.5 37.4062 38.5H39.5938C39.9219 38.5 40.25 38.8281 40.25 39.1562V41.3438C40.25 41.7266 39.9219 42 39.5938 42H37.4062C37.0234 42 36.75 41.7266 36.75 41.3438V39.1562ZM29.75 32.1562C29.75 31.8281 30.0234 31.5 30.4062 31.5H32.5938C32.9219 31.5 33.25 31.8281 33.25 32.1562V34.3438C33.25 34.7266 32.9219 35 32.5938 35H30.4062C30.0234 35 29.75 34.7266 29.75 34.3438V32.1562ZM29.75 39.1562C29.75 38.8281 30.0234 38.5 30.4062 38.5H32.5938C32.9219 38.5 33.25 38.8281 33.25 39.1562V41.3438C33.25 41.7266 32.9219 42 32.5938 42H30.4062C30.0234 42 29.75 41.7266 29.75 41.3438V39.1562ZM22.75 32.1562C22.75 31.8281 23.0234 31.5 23.4062 31.5H25.5938C25.9219 31.5 26.25 31.8281 26.25 32.1562V34.3438C26.25 34.7266 25.9219 35 25.5938 35H23.4062C23.0234 35 22.75 34.7266 22.75 34.3438V32.1562ZM22.75 39.1562C22.75 38.8281 23.0234 38.5 23.4062 38.5H25.5938C25.9219 38.5 26.25 38.8281 26.25 39.1562V41.3438C26.25 41.7266 25.9219 42 25.5938 42H23.4062C23.0234 42 22.75 41.7266 22.75 41.3438V39.1562ZM41.125 21H38.5V18.375C38.5 17.9375 38.0625 17.5 37.625 17.5H35.875C35.3828 17.5 35 17.9375 35 18.375V21H28V18.375C28 17.9375 27.5625 17.5 27.125 17.5H25.375C24.8828 17.5 24.5 17.9375 24.5 18.375V21H21.875C20.3984 21 19.25 22.2031 19.25 23.625V26.25H43.75V23.625C43.75 22.2031 42.5469 21 41.125 21Z" fill="white"/>
</svg>
