<svg width="123" height="42" viewBox="0 0 123 42" fill="none" xmlns="http://www.w3.org/2000/svg">
<path d="M7.33902 25.7033L4.21543 17.5069C4.35232 19.5785 4.21543 17.5377 4.21543 18.6852V25.7033H0.475861V8.21296H5.23764L8.91841 18.9005L12.2375 8.17923H17.3903V25.7033H13.2061V18.6159C13.2061 18.2308 13.2094 17.8034 13.2159 17.3336C13.1377 19.1665 13.229 16.8638 13.2159 17.3336L13.2136 17.5069L10.3805 25.7033H7.33902Z" fill="#25316E"/>
<path d="M25.5546 25.7033V24.5617C24.8023 25.1428 24.978 25.0781 24.4435 25.3554C23.909 25.6326 23.2248 25.8359 22.3774 25.8359C21.3345 25.8359 20.3166 25.3554 19.8404 24.8792C19.402 24.4408 18.7293 23.3622 18.7293 22.0221C18.7293 20.6282 19.4246 19.5939 20.2459 18.9162C21.0673 18.2308 22.2568 17.8457 23.8147 17.761L25.6627 17.6917V17.5069C25.6627 16.4287 25.6699 16.0098 24.6022 15.8318C23.6498 15.6731 20.4505 15.8198 19.2055 16.4667V13.6096C20.4961 12.8241 23.0488 12.7012 25.0174 12.7012C26.4384 12.7012 27.5367 13.1171 28.3124 13.9488C29.0946 14.7806 29.4857 15.9435 29.4857 17.4375V25.7033H25.5546ZM23.9673 22.9745C24.4301 22.9745 24.8577 22.8901 25.1836 22.5436C25.516 22.197 25.6822 21.7465 25.6822 21.192L25.6627 20.2216H24.8023C23.5442 20.2755 22.3774 20.4349 22.3774 21.8634C22.3774 22.6643 23.2438 22.9745 23.9673 22.9745Z" fill="#25316E"/>
<path d="M37.9352 12.9747C38.0939 12.9747 38.4114 12.9747 38.7288 12.9747H39.205V16.1493C38.7288 16.1493 38.0131 16.1493 37.459 16.1493C36.6247 16.1493 36.0305 16.1493 35.8717 16.4667C35.5543 16.7842 35.592 18.7391 35.592 19.5862V25.7033H31.4516V12.9322H35.3956V14.7207C36.0305 14.0858 36.0983 14.0332 36.6654 13.6096C37.239 13.1784 37.7765 12.9747 37.9352 12.9747Z" fill="#25316E"/>
<path d="M44.895 25.7033C43.6565 25.7033 42.3795 25.1966 41.7446 24.3688C40.4748 22.9745 40.1573 21.527 40.1573 19.4245C40.1573 16.0799 41.2442 15.1158 41.7446 14.5495C42.8557 13.2922 43.9668 13.1335 45.0778 12.9747C46.1889 12.9747 47.385 13.3173 48.0629 14.5495H48.1411L50.3294 12.9322H51.7295V33.2917L47.9065 30.752V26.2865C47.9065 26.0246 47.9456 25.3854 48.0238 24.3688V24.2443C47.3 25.3554 46.2182 25.7033 44.895 25.7033ZM46.5376 22.7515C47.1177 22.7515 47.5382 22.5397 47.7989 22.1162C47.9065 21.9414 47.8823 20.9763 47.8823 19.9675V19.4245C47.8823 18.2693 47.8823 17.4191 47.7989 16.9524C47.5317 16.4518 46.7995 15.7809 46.1889 15.8318C44.2842 15.9905 43.9668 17.8952 43.9668 19.4245C43.9668 20.5643 44.2842 21.7047 44.9191 22.3396C45.554 22.9745 46.5376 22.7515 46.5376 22.7515Z" fill="#25316E"/>
<path d="M61.7905 25.7033V24.3919V24.2443C61.4711 24.845 60.7997 25.4547 60.2261 25.7782C59.659 26.0939 58.9909 26.2518 58.2217 26.2518C57.0028 26.2518 55.5968 25.7109 54.9188 24.8792C54.2409 24.0397 53.7247 22.9826 53.7247 21.4577V12.9322H57.5477V20.083C57.5477 21.5459 57.5477 21.7047 57.9346 22.1808C58.3216 22.657 59.3632 22.657 59.3632 22.657C59.3632 22.657 60.7287 22.8157 61.2679 22.0221C61.8071 21.2285 61.6484 20.083 61.6484 18.6621V12.9322H65.4714V25.7033H61.7905Z" fill="#25316E"/>
<path d="M73.0136 25.7033C71.1689 25.7033 69.5927 25.2408 68.5693 24.0856C67.5524 22.9226 67.1407 21.6235 67.1407 19.4825C67.1407 17.2722 67.7873 15.6585 68.7325 14.4802C69.6777 13.2942 71.027 12.7012 72.7804 12.7012C74.4491 12.7012 76.0757 13.2126 76.9818 14.2445C77.8943 15.2688 78.2516 16.7521 78.2516 18.6852V20.0603H71.2551C71.0284 20.911 71.3594 21.9237 71.7831 22.3396C72.2133 22.7554 73.0707 22.971 73.8072 22.971C74.4786 22.971 75.3101 22.9621 75.8707 22.8157C76.4378 22.6617 76.9583 22.5876 77.6167 22.2257V24.8792C77.017 25.2412 76.5095 25.3854 75.8707 25.524C75.2319 25.6626 73.9001 25.7033 73.0136 25.7033ZM72.5374 15.8318C72.3868 15.882 72.0894 15.9435 71.7831 16.2823C71.4832 16.6135 71.3072 16.8197 71.2551 17.536H74.8765C74.9183 16.4667 74.5831 16.2685 74.2834 15.9905C73.9837 15.7126 73.0136 15.6731 72.5374 15.8318ZM71.9025 11.6846L72.0315 11.3496C72.5374 10.0211 72.9857 8.88899 72.9857 8.88899L73.3311 7.89551H76.8928V8.1381C76.6643 8.37169 76.206 9.10317 75.5532 9.95895C75.3585 10.2142 74.2562 11.6846 74.2562 11.6846H71.9025Z" fill="#25316E"/>
<path d="M89.2037 21.8634C89.2037 23.9268 88.5834 24.4804 87.7751 25.1966C86.9668 25.9129 84.918 25.8315 84.1244 25.8315C83.3031 25.8315 82.5372 25.8315 81.7435 25.6728C81.5476 25.6336 81.2674 25.6728 79.5214 25.3554V22.3396C80.1145 22.6476 81.7435 22.8157 81.7435 22.8157C82.454 23.016 83.3238 22.971 83.8778 22.971C84.7057 22.971 85.1196 22.7477 85.1196 22.301C85.1196 22.0699 85.0023 21.8659 84.7676 21.6887C84.5394 21.5039 83.7299 20.911 83.0133 20.4349C82.1622 19.8693 81.892 19.7836 81.2086 19.165C80.1563 18.2127 79.7178 17.3665 79.7178 16.4039C79.7178 15.187 80.4133 14.3955 81.2086 13.7178C82.0038 13.04 83.1282 12.7012 84.5818 12.7012C85.3119 12.7012 86.664 12.9747 87.1402 13.1335C87.7751 13.3451 88.0926 13.4509 88.6395 13.6096V16.2939C87.2989 15.8318 86.664 15.6731 86.664 15.6731C86.664 15.6731 85.9249 15.5144 85.553 15.5144C84.4419 15.5144 84.2831 15.6731 84.2831 15.6731C84.2831 15.6731 83.807 15.8318 83.6627 16.2939C83.6627 16.5172 83.7703 16.7098 83.9854 16.8715C84.207 17.0255 84.8393 17.3451 85.8822 17.8303C86.6579 18.2077 87.2348 18.5774 87.6128 18.9393C87.9974 19.3013 88.5515 19.6245 88.7275 20.1174C89.0449 20.4349 89.2037 21.1626 89.2037 21.8634Z" fill="#25316E"/>
<path d="M4.89364 40.9105H3.65059V39.0443H2.21341V40.9105H0.970352V36.3328H2.21341V38.0298H3.65059V36.3328H4.89364V40.9105Z" fill="#142263"/>
<path d="M9.95065 40.9105H7.23284V36.3328H9.95065V37.3253H8.46963V38.0455H9.84106V39.038H8.46963V39.9022H9.95065V40.9105Z" fill="#142263"/>
<path d="M14.1372 37.2815C13.8429 37.2815 13.6133 37.4026 13.4484 37.6447C13.2835 37.8847 13.201 38.2166 13.201 38.6404C13.201 39.5213 13.536 39.9617 14.2061 39.9617C14.4086 39.9617 14.6048 39.9335 14.7947 39.8772C14.9847 39.8208 15.1757 39.753 15.3677 39.6737V40.7195C14.9857 40.8885 14.5536 40.9731 14.0714 40.9731C13.3805 40.9731 12.8503 40.7727 12.4808 40.3719C12.1135 39.9711 11.9298 39.3919 11.9298 38.6341C11.9298 38.1603 12.0185 37.7438 12.1959 37.3848C12.3754 37.0258 12.6322 36.7502 12.9662 36.5582C13.3022 36.3641 13.6968 36.267 14.1497 36.267C14.6444 36.267 15.1172 36.3745 15.5681 36.5895L15.1893 37.5633C15.0202 37.484 14.8511 37.4172 14.682 37.3629C14.5129 37.3086 14.3313 37.2815 14.1372 37.2815Z" fill="#142263"/>
<path d="M21.5332 40.9105H20.2901V39.0443H18.8529V40.9105H17.6099V36.3328H18.8529V38.0298H20.2901V36.3328H21.5332V40.9105Z" fill="#142263"/>
<path d="M28.1557 38.6153C28.1557 39.3856 27.9668 39.9711 27.589 40.3719C27.2112 40.7727 26.658 40.9731 25.9295 40.9731C25.2114 40.9731 24.6603 40.7716 24.2763 40.3688C23.8943 39.9659 23.7033 39.3793 23.7033 38.6091C23.7033 37.8472 23.8932 37.2658 24.2731 36.865C24.6551 36.4622 25.2093 36.2607 25.9358 36.2607C26.6643 36.2607 27.2164 36.4601 27.5921 36.8588C27.9679 37.2575 28.1557 37.843 28.1557 38.6153ZM25.0058 38.6153C25.0058 39.5004 25.3137 39.9429 25.9295 39.9429C26.2426 39.9429 26.4743 39.8354 26.6246 39.6204C26.777 39.4054 26.8532 39.0704 26.8532 38.6153C26.8532 38.1582 26.7759 37.8211 26.6215 37.604C26.4691 37.3848 26.2405 37.2752 25.9358 37.2752C25.3158 37.2752 25.0058 37.7219 25.0058 38.6153Z" fill="#142263"/>
<path d="M33.3223 39.5202C33.3223 39.8041 33.2503 40.0567 33.1063 40.278C32.9622 40.4971 32.7545 40.6683 32.4832 40.7915C32.2118 40.9125 31.8935 40.9731 31.5282 40.9731C31.2234 40.9731 30.9677 40.9522 30.7611 40.9105C30.5544 40.8666 30.3394 40.7915 30.1161 40.685V39.5829C30.3519 39.7039 30.5972 39.7989 30.8519 39.8678C31.1065 39.9346 31.3403 39.968 31.5532 39.968C31.7369 39.968 31.8716 39.9367 31.9571 39.8741C32.0427 39.8093 32.0855 39.7269 32.0855 39.6267C32.0855 39.5641 32.0678 39.5098 32.0323 39.4639C31.9989 39.4159 31.9436 39.3679 31.8663 39.3198C31.7912 39.2718 31.5887 39.1737 31.2589 39.0255C30.9604 38.8898 30.736 38.7583 30.5857 38.631C30.4375 38.5037 30.3269 38.3575 30.2538 38.1926C30.1828 38.0277 30.1474 37.8326 30.1474 37.6071C30.1474 37.1855 30.3008 36.8567 30.6076 36.6208C30.9145 36.3849 31.3361 36.267 31.8726 36.267C32.3465 36.267 32.8297 36.3766 33.3223 36.5958L32.9434 37.5508C32.5155 37.3545 32.1461 37.2564 31.835 37.2564C31.6743 37.2564 31.5574 37.2846 31.4844 37.341C31.4113 37.3973 31.3748 37.4673 31.3748 37.5508C31.3748 37.6405 31.4207 37.7209 31.5125 37.7919C31.6065 37.8628 31.859 37.9923 32.2703 38.1801C32.6648 38.3575 32.9382 38.5485 33.0906 38.7531C33.2451 38.9556 33.3223 39.2113 33.3223 39.5202Z" fill="#142263"/>
<path d="M42.5627 38.6153C42.5627 39.1706 42.4563 39.6382 42.2434 40.0181C42.0325 40.398 41.7247 40.6652 41.3197 40.8196L42.4156 42.0001H41.4074L40.5432 40.9731H40.4211C39.7301 40.9731 39.1989 40.7685 38.8273 40.3594C38.4579 39.9482 38.2731 39.3647 38.2731 38.6091C38.2731 37.8534 38.4589 37.2731 38.8305 36.8682C39.2041 36.4632 39.7364 36.2607 40.4273 36.2607C41.1078 36.2607 41.6339 36.4664 42.0054 36.8776C42.377 37.2888 42.5627 37.868 42.5627 38.6153ZM39.0684 38.6153C39.0684 39.1789 39.1822 39.6069 39.4097 39.8991C39.6372 40.1893 39.9744 40.3343 40.4211 40.3343C40.8657 40.3343 41.2007 40.1903 41.4262 39.9022C41.6537 39.6142 41.7674 39.1852 41.7674 38.6153C41.7674 38.0538 41.6547 37.628 41.4293 37.3378C41.2059 37.0477 40.8719 36.9026 40.4273 36.9026C39.9785 36.9026 39.6393 37.0477 39.4097 37.3378C39.1822 37.628 39.0684 38.0538 39.0684 38.6153Z" fill="#142263"/>
<path d="M48.4808 36.3328V39.2948C48.4808 39.633 48.4078 39.9294 48.2616 40.184C48.1176 40.4366 47.9078 40.6318 47.6323 40.7696C47.3588 40.9052 47.0311 40.9731 46.6491 40.9731C46.0813 40.9731 45.6398 40.8228 45.3246 40.5222C45.0094 40.2216 44.8518 39.8083 44.8518 39.2823V36.3328H45.6033V39.229C45.6033 39.6069 45.691 39.8855 45.8663 40.065C46.0417 40.2446 46.3109 40.3343 46.6742 40.3343C47.3797 40.3343 47.7325 39.9638 47.7325 39.2228V36.3328H48.4808Z" fill="#142263"/>
<path d="M53.5879 40.9105H50.9985V36.3328H53.5879V36.9652H51.7468V38.2114H53.4721V38.8377H51.7468V40.2748H53.5879V40.9105Z" fill="#142263"/>
<path d="M60.8495 40.9105H59.6127V37.3441H58.4949V36.3328H61.9642V37.3441H60.8495V40.9105Z" fill="#142263"/>
<path d="M65.202 39.2447V40.9105H63.9652V36.3328H65.465C66.7091 36.3328 67.3311 36.7836 67.3311 37.6854C67.3311 38.2156 67.0723 38.6258 66.5546 38.9159L67.8885 40.9105H66.4857L65.5151 39.2447H65.202ZM65.202 38.3148H65.4337C65.8658 38.3148 66.0818 38.1238 66.0818 37.7418C66.0818 37.4266 65.8699 37.269 65.4462 37.269H65.202V38.3148Z" fill="#142263"/>
<path d="M72.4602 40.9105L72.2347 40.0525H70.7474L70.5157 40.9105H69.1568L70.6504 36.314H72.3005L73.8128 40.9105H72.4602ZM71.978 39.038L71.7807 38.2866C71.7348 38.1196 71.6784 37.9035 71.6116 37.6384C71.5469 37.3733 71.5041 37.1834 71.4833 37.0686C71.4645 37.175 71.4269 37.3504 71.3705 37.5946C71.3163 37.8388 71.1941 38.32 71.0042 39.038H71.978Z" fill="#142263"/>
<path d="M80.0158 40.9105H78.3939L76.7219 37.6854H76.6937C76.7333 38.1926 76.7532 38.5799 76.7532 38.847V40.9105H75.6573V36.3328H77.2729L78.9387 39.514H78.9575C78.9283 39.0527 78.9136 38.6821 78.9136 38.4024V36.3328H80.0158V40.9105Z" fill="#142263"/>
<path d="M85.3452 39.5202C85.3452 39.8041 85.2732 40.0567 85.1292 40.278C84.9851 40.4971 84.7774 40.6683 84.5061 40.7915C84.2347 40.9125 83.9164 40.9731 83.5511 40.9731C83.2463 40.9731 82.9906 40.9522 82.784 40.9105C82.5773 40.8666 82.3623 40.7915 82.1389 40.685V39.5829C82.3748 39.7039 82.6201 39.7989 82.8748 39.8678C83.1294 39.9346 83.3632 39.968 83.5761 39.968C83.7598 39.968 83.8945 39.9367 83.98 39.8741C84.0656 39.8093 84.1084 39.7269 84.1084 39.6267C84.1084 39.5641 84.0907 39.5098 84.0552 39.4639C84.0218 39.4159 83.9665 39.3679 83.8892 39.3198C83.8141 39.2718 83.6116 39.1737 83.2818 39.0255C82.9833 38.8898 82.7589 38.7583 82.6086 38.631C82.4604 38.5037 82.3498 38.3575 82.2767 38.1926C82.2057 38.0277 82.1703 37.8326 82.1703 37.6071C82.1703 37.1855 82.3237 36.8567 82.6305 36.6208C82.9374 36.3849 83.359 36.267 83.8955 36.267C84.3693 36.267 84.8526 36.3766 85.3452 36.5958L84.9663 37.5508C84.5384 37.3545 84.169 37.2564 83.8579 37.2564C83.6972 37.2564 83.5803 37.2846 83.5072 37.341C83.4342 37.3973 83.3976 37.4673 83.3976 37.5508C83.3976 37.6405 83.4436 37.7209 83.5354 37.7919C83.6293 37.8628 83.8819 37.9923 84.2932 38.1801C84.6877 38.3575 84.9611 38.5485 85.1135 38.7531C85.268 38.9556 85.3452 39.2113 85.3452 39.5202Z" fill="#142263"/>
<path d="M88.6175 40.9105H87.3995V36.3328H90.1048V37.3253H88.6175V38.1989H89.9889V39.1915H88.6175V40.9105Z" fill="#142263"/>
<path d="M96.4862 38.6153C96.4862 39.3856 96.2973 39.9711 95.9195 40.3719C95.5417 40.7727 94.9885 40.9731 94.26 40.9731C93.5419 40.9731 92.9909 40.7716 92.6068 40.3688C92.2248 39.9659 92.0338 39.3793 92.0338 38.6091C92.0338 37.8472 92.2237 37.2658 92.6036 36.865C92.9856 36.4622 93.5398 36.2607 94.2663 36.2607C94.9948 36.2607 95.5469 36.4601 95.9226 36.8588C96.2984 37.2575 96.4862 37.843 96.4862 38.6153ZM93.3363 38.6153C93.3363 39.5004 93.6442 39.9429 94.26 39.9429C94.5731 39.9429 94.8048 39.8354 94.9551 39.6204C95.1075 39.4054 95.1837 39.0704 95.1837 38.6153C95.1837 38.1582 95.1064 37.8211 94.952 37.604C94.7996 37.3848 94.571 37.2752 94.2663 37.2752C93.6463 37.2752 93.3363 37.7219 93.3363 38.6153Z" fill="#142263"/>
<path d="M99.8963 39.2447V40.9105H98.6595V36.3328H100.159C101.403 36.3328 102.025 36.7836 102.025 37.6854C102.025 38.2156 101.767 38.6258 101.249 38.9159L102.583 40.9105H101.18L100.209 39.2447H99.8963ZM99.8963 38.3148H100.128C100.56 38.3148 100.776 38.1238 100.776 37.7418C100.776 37.4266 100.564 37.269 100.14 37.269H99.8963V38.3148Z" fill="#142263"/>
<path d="M106.34 40.9105L105.404 37.6134H105.376C105.42 38.1749 105.442 38.6112 105.442 38.9222V40.9105H104.346V36.3328H105.993L106.948 39.5829H106.973L107.909 36.3328H109.559V40.9105H108.423V38.9034C108.423 38.799 108.424 38.6832 108.426 38.5559C108.43 38.4285 108.444 38.1165 108.47 37.6196H108.441L107.518 40.9105H106.34Z" fill="#142263"/>
<path d="M114.701 40.9105L114.475 40.0525H112.988L112.756 40.9105H111.397L112.891 36.314H114.541L116.053 40.9105H114.701ZM114.218 39.038L114.021 38.2866C113.975 38.1196 113.919 37.9035 113.852 37.6384C113.787 37.3733 113.745 37.1834 113.724 37.0686C113.705 37.175 113.667 37.3504 113.611 37.5946C113.557 37.8388 113.435 38.32 113.245 39.038H114.218Z" fill="#142263"/>
<path d="M122.256 40.9105H120.634L118.962 37.6854H118.934C118.974 38.1926 118.994 38.5799 118.994 38.847V40.9105H117.898V36.3328H119.513L121.179 39.514H121.198C121.169 39.0527 121.154 38.6821 121.154 38.4024V36.3328H122.256V40.9105Z" fill="#142263"/>
<path d="M25.8836 9.48263H20.924V0.871132H25.8836V2.36725H22.4325V4.25801H25.3482V5.75412H22.75V7.97474H25.8836V9.48263Z" fill="#00ADD8"/>
<path d="M28.7062 9.48263H27.2272V0H28.7062V9.48263Z" fill="#00ADD8"/>
<path d="M111.584 31.7041V1.71583C111.584 0.923425 112.432 0.419369 113.128 0.797677L119.33 4.16731C121.012 5.08156 122.06 6.8431 122.06 8.7581V31.7041H111.584Z" fill="#00A7D3"/>
<path d="M109.679 31.7042V16.1289C109.679 15.3437 108.846 14.839 108.15 15.203L102.165 18.3335C100.442 19.2348 99.362 21.0185 99.362 22.9631V31.7042H109.679Z" fill="#26316F"/>
<path d="M97.9721 22.4695L98.092 31.7039H53.4901V30.1961H92.8541V22.7196C92.8541 20.8197 93.8854 19.0696 95.5474 18.1491L102.396 14.3562C102.744 14.1633 103.171 14.4152 103.171 14.8133V16.3075L100.488 17.9335C98.9053 18.893 97.9481 20.6185 97.9721 22.4695Z" fill="#F07E0E"/>
<path d="M0 31.704V30.1167H46.348L46.8242 31.704H0Z" fill="#F07E0E"/>
</svg>
